<mxfile host="app.diagrams.net" agent="Mozilla/5.0 (Windows NT 10.0; Win64; x64) AppleWebKit/537.36 (KHTML, like Gecko) Chrome/131.0.0.0 Safari/537.36" version="25.0.1">
  <diagram name="PÃ¡gina-1" id="Svs8xxvVisMG-Eagplg8">
    <mxGraphModel grid="1" page="1" gridSize="10" guides="1" tooltips="1" connect="1" arrows="1" fold="1" pageScale="1" pageWidth="827" pageHeight="1169" math="0" shadow="0">
      <root>
        <mxCell id="0" />
        <mxCell id="1" parent="0" />
        <mxCell id="vGRCYvYw_vGhQaDywJrN-30" value="&lt;div style=&quot;line-height: 100%;&quot;&gt;&lt;br&gt;&lt;/div&gt;" style="html=1;dropTarget=0;whiteSpace=wrap;fillColor=#e1d5e7;strokeColor=#9673a6;" vertex="1" parent="1">
          <mxGeometry x="-1639" y="-1010" width="220" height="140" as="geometry" />
        </mxCell>
        <mxCell id="vGRCYvYw_vGhQaDywJrN-31" value="" style="shape=module;jettyWidth=8;jettyHeight=4;" vertex="1" parent="vGRCYvYw_vGhQaDywJrN-30">
          <mxGeometry x="1" width="20" height="20" relative="1" as="geometry">
            <mxPoint x="-27" y="7" as="offset" />
          </mxGeometry>
        </mxCell>
        <mxCell id="vGRCYvYw_vGhQaDywJrN-34" value="" style="html=1;dropTarget=0;whiteSpace=wrap;fillColor=#d5e8d4;strokeColor=#82b366;" vertex="1" parent="1">
          <mxGeometry x="-1334" y="-1030" width="475" height="330" as="geometry" />
        </mxCell>
        <mxCell id="vGRCYvYw_vGhQaDywJrN-35" value="" style="shape=module;jettyWidth=8;jettyHeight=4;" vertex="1" parent="vGRCYvYw_vGhQaDywJrN-34">
          <mxGeometry x="1" width="20" height="20" relative="1" as="geometry">
            <mxPoint x="-27" y="7" as="offset" />
          </mxGeometry>
        </mxCell>
        <mxCell id="SkDtupgN0jb3LAkBl0hs-3" style="edgeStyle=orthogonalEdgeStyle;rounded=0;orthogonalLoop=1;jettySize=auto;html=1;exitX=0.5;exitY=0;exitDx=0;exitDy=0;entryX=0.25;entryY=1;entryDx=0;entryDy=0;strokeWidth=2;startArrow=classic;startFill=1;dashed=1;" edge="1" parent="1" source="vGRCYvYw_vGhQaDywJrN-36" target="vGRCYvYw_vGhQaDywJrN-34">
          <mxGeometry relative="1" as="geometry" />
        </mxCell>
        <mxCell id="vGRCYvYw_vGhQaDywJrN-36" value="&lt;div&gt;&lt;font style=&quot;font-size: 20px;&quot;&gt;Webb App&lt;/font&gt;&lt;/div&gt;&lt;div&gt;&lt;font style=&quot;font-size: 20px;&quot;&gt;Interface&lt;/font&gt;&lt;/div&gt;" style="html=1;dropTarget=0;whiteSpace=wrap;fillColor=#fff2cc;strokeColor=#d6b656;" vertex="1" parent="1">
          <mxGeometry x="-1301" y="-625" width="170" height="80" as="geometry" />
        </mxCell>
        <mxCell id="vGRCYvYw_vGhQaDywJrN-37" value="" style="shape=module;jettyWidth=8;jettyHeight=4;" vertex="1" parent="vGRCYvYw_vGhQaDywJrN-36">
          <mxGeometry x="1" width="20" height="20" relative="1" as="geometry">
            <mxPoint x="-27" y="7" as="offset" />
          </mxGeometry>
        </mxCell>
        <mxCell id="vGRCYvYw_vGhQaDywJrN-38" value="&lt;div&gt;&lt;font style=&quot;font-size: 24px;&quot;&gt;Lifeguard&amp;nbsp;&lt;/font&gt;&lt;/div&gt;&lt;div&gt;&lt;font style=&quot;font-size: 24px;&quot;&gt;Interface&lt;/font&gt;&lt;/div&gt;" style="html=1;dropTarget=0;whiteSpace=wrap;fillColor=#fff2cc;strokeColor=#d6b656;" vertex="1" parent="1">
          <mxGeometry x="-1545" y="-625" width="160" height="80" as="geometry" />
        </mxCell>
        <mxCell id="vGRCYvYw_vGhQaDywJrN-39" value="" style="shape=module;jettyWidth=8;jettyHeight=4;" vertex="1" parent="vGRCYvYw_vGhQaDywJrN-38">
          <mxGeometry x="1" width="20" height="20" relative="1" as="geometry">
            <mxPoint x="-27" y="7" as="offset" />
          </mxGeometry>
        </mxCell>
        <mxCell id="vGRCYvYw_vGhQaDywJrN-40" value="&lt;font style=&quot;font-size: 20px;&quot;&gt;&lt;br&gt;&lt;/font&gt;&lt;div&gt;&lt;font style=&quot;font-size: 20px;&quot;&gt;Beachgoer / Business&lt;/font&gt;&lt;/div&gt;&lt;div&gt;&lt;font style=&quot;font-size: 20px;&quot;&gt;Interface&lt;/font&gt;&lt;/div&gt;" style="html=1;dropTarget=0;whiteSpace=wrap;fillColor=#fff2cc;strokeColor=#d6b656;" vertex="1" parent="1">
          <mxGeometry x="-1049" y="-630" width="222" height="90" as="geometry" />
        </mxCell>
        <mxCell id="vGRCYvYw_vGhQaDywJrN-41" value="" style="shape=module;jettyWidth=8;jettyHeight=4;" vertex="1" parent="vGRCYvYw_vGhQaDywJrN-40">
          <mxGeometry x="1" width="20" height="20" relative="1" as="geometry">
            <mxPoint x="-27" y="7" as="offset" />
          </mxGeometry>
        </mxCell>
        <mxCell id="vGRCYvYw_vGhQaDywJrN-43" value="&lt;div&gt;&lt;font style=&quot;font-size: 24px;&quot;&gt;Database&lt;/font&gt;&lt;/div&gt;" style="html=1;dropTarget=0;whiteSpace=wrap;fillColor=#dae8fc;strokeColor=#6c8ebf;" vertex="1" parent="1">
          <mxGeometry x="-1579" y="-849" width="160" height="80" as="geometry" />
        </mxCell>
        <mxCell id="vGRCYvYw_vGhQaDywJrN-44" value="" style="shape=module;jettyWidth=8;jettyHeight=4;" vertex="1" parent="vGRCYvYw_vGhQaDywJrN-43">
          <mxGeometry x="1" width="20" height="20" relative="1" as="geometry">
            <mxPoint x="-27" y="7" as="offset" />
          </mxGeometry>
        </mxCell>
        <mxCell id="vGRCYvYw_vGhQaDywJrN-57" value="&lt;font style=&quot;font-size: 20px;&quot;&gt;GPS&lt;/font&gt;" style="shape=module;align=left;spacingLeft=20;align=center;verticalAlign=top;whiteSpace=wrap;html=1;" vertex="1" parent="1">
          <mxGeometry x="-1619" y="-940" width="70" height="50" as="geometry" />
        </mxCell>
        <mxCell id="vGRCYvYw_vGhQaDywJrN-59" value="&lt;font style=&quot;font-size: 20px;&quot;&gt;RFID&lt;/font&gt;" style="shape=module;align=left;spacingLeft=20;align=center;verticalAlign=top;whiteSpace=wrap;html=1;" vertex="1" parent="1">
          <mxGeometry x="-1524" y="-940" width="70" height="50" as="geometry" />
        </mxCell>
        <mxCell id="wKAv66ZSIYWX75uYIhyr-1" value="&lt;b&gt;&lt;font style=&quot;font-size: 18px;&quot;&gt;SPLASH&lt;/font&gt;&lt;/b&gt;&lt;div&gt;&lt;b&gt;&lt;font size=&quot;3&quot;&gt;Grupo 14 (AM)&lt;/font&gt;&lt;/b&gt;&lt;/div&gt;&lt;div&gt;&lt;b&gt;&lt;font size=&quot;3&quot;&gt;V2024/12/04&lt;/font&gt;&lt;/b&gt;&lt;/div&gt;" style="shape=note;size=20;whiteSpace=wrap;html=1;fillColor=#dae8fc;strokeColor=#6c8ebf;" vertex="1" parent="1">
          <mxGeometry x="-1639" y="-1160" width="160" height="80" as="geometry" />
        </mxCell>
        <mxCell id="sMlNI6OWwEZpbjPy5gCY-2" value="&lt;font style=&quot;font-size: 24px;&quot;&gt;Wearable&amp;nbsp;&lt;/font&gt;&lt;div&gt;&lt;font style=&quot;font-size: 24px;&quot;&gt;Tracking Device&lt;/font&gt;&lt;/div&gt;" style="text;html=1;align=center;verticalAlign=middle;whiteSpace=wrap;rounded=0;" vertex="1" parent="1">
          <mxGeometry x="-1639" y="-1000" width="185" height="50" as="geometry" />
        </mxCell>
        <mxCell id="sMlNI6OWwEZpbjPy5gCY-4" value="&lt;font style=&quot;font-size: 24px;&quot;&gt;&lt;b&gt;API&lt;/b&gt;&lt;/font&gt;" style="text;html=1;align=center;verticalAlign=middle;whiteSpace=wrap;rounded=0;" vertex="1" parent="1">
          <mxGeometry x="-1319" y="-1010" width="60" height="30" as="geometry" />
        </mxCell>
        <mxCell id="sMlNI6OWwEZpbjPy5gCY-5" value="&lt;font style=&quot;line-height: 100%; font-size: 20px;&quot;&gt;Interactive&lt;/font&gt;&lt;div style=&quot;line-height: 100%;&quot;&gt;&lt;font style=&quot;line-height: 100%; font-size: 20px;&quot;&gt;Map&lt;/font&gt;&lt;/div&gt;" style="shape=module;align=left;spacingLeft=20;align=center;verticalAlign=top;whiteSpace=wrap;html=1;" vertex="1" parent="1">
          <mxGeometry x="-1179" y="-830" width="120" height="50" as="geometry" />
        </mxCell>
        <mxCell id="sMlNI6OWwEZpbjPy5gCY-6" value="&lt;div&gt;&lt;font style=&quot;line-height: 100%; font-size: 20px;&quot;&gt;Regular&lt;/font&gt;&lt;/div&gt;&lt;font style=&quot;font-size: 20px;&quot;&gt;Account&lt;/font&gt;&lt;div&gt;&lt;font style=&quot;font-size: 20px;&quot;&gt;Mannagment&lt;/font&gt;&lt;/div&gt;" style="shape=module;align=left;spacingLeft=20;align=center;verticalAlign=top;whiteSpace=wrap;html=1;" vertex="1" parent="1">
          <mxGeometry x="-1044" y="-800" width="165" height="80" as="geometry" />
        </mxCell>
        <mxCell id="sMlNI6OWwEZpbjPy5gCY-7" value="&lt;font style=&quot;line-height: 110%; font-size: 20px;&quot;&gt;Communication&lt;/font&gt;&lt;div style=&quot;line-height: 110%;&quot;&gt;&lt;font style=&quot;line-height: 110%; font-size: 20px;&quot;&gt;channel&lt;/font&gt;&lt;/div&gt;" style="shape=module;align=left;spacingLeft=20;align=center;verticalAlign=top;whiteSpace=wrap;html=1;" vertex="1" parent="1">
          <mxGeometry x="-1229" y="-770" width="170" height="50" as="geometry" />
        </mxCell>
        <mxCell id="sMlNI6OWwEZpbjPy5gCY-8" value="&lt;div&gt;&lt;font style=&quot;line-height: 8px; font-size: 20px;&quot;&gt;Lifeguard&lt;/font&gt;&lt;/div&gt;&lt;font style=&quot;font-size: 20px;&quot;&gt;Account&lt;/font&gt;&lt;div&gt;&lt;font style=&quot;font-size: 20px;&quot;&gt;Mannagment&lt;/font&gt;&lt;/div&gt;" style="shape=module;align=left;spacingLeft=20;align=center;verticalAlign=top;whiteSpace=wrap;html=1;" vertex="1" parent="1">
          <mxGeometry x="-1039" y="-880" width="160" height="70" as="geometry" />
        </mxCell>
        <mxCell id="sMlNI6OWwEZpbjPy5gCY-9" value="&lt;div&gt;&lt;font style=&quot;line-height: 8px; font-size: 20px;&quot;&gt;Hazards&lt;/font&gt;&lt;/div&gt;&lt;div&gt;&lt;font style=&quot;line-height: 8px; font-size: 20px;&quot;&gt;&lt;br&gt;&lt;/font&gt;&lt;/div&gt;&lt;div&gt;&lt;font style=&quot;line-height: 8px; font-size: 20px;&quot;&gt;Modules&lt;/font&gt;&lt;/div&gt;" style="shape=module;align=left;spacingLeft=20;align=center;verticalAlign=top;whiteSpace=wrap;html=1;" vertex="1" parent="1">
          <mxGeometry x="-1169" y="-890" width="110" height="50" as="geometry" />
        </mxCell>
        <mxCell id="sMlNI6OWwEZpbjPy5gCY-10" value="&lt;div&gt;&lt;span style=&quot;font-size: 20px; background-color: initial;&quot;&gt;Business&lt;/span&gt;&lt;/div&gt;&lt;font style=&quot;font-size: 20px;&quot;&gt;Account&lt;/font&gt;&lt;div&gt;&lt;font style=&quot;font-size: 20px;&quot;&gt;Mannagment&lt;/font&gt;&lt;/div&gt;" style="shape=module;align=left;spacingLeft=20;align=center;verticalAlign=top;whiteSpace=wrap;html=1;" vertex="1" parent="1">
          <mxGeometry x="-1024" y="-970" width="145" height="80" as="geometry" />
        </mxCell>
        <mxCell id="SkDtupgN0jb3LAkBl0hs-1" style="edgeStyle=orthogonalEdgeStyle;rounded=0;orthogonalLoop=1;jettySize=auto;html=1;exitX=1;exitY=0.5;exitDx=0;exitDy=0;entryX=-0.002;entryY=0.671;entryDx=0;entryDy=0;entryPerimeter=0;startArrow=classic;startFill=1;dashed=1;strokeWidth=2;" edge="1" parent="1" source="vGRCYvYw_vGhQaDywJrN-43" target="vGRCYvYw_vGhQaDywJrN-34">
          <mxGeometry relative="1" as="geometry" />
        </mxCell>
        <mxCell id="SkDtupgN0jb3LAkBl0hs-2" style="edgeStyle=orthogonalEdgeStyle;rounded=0;orthogonalLoop=1;jettySize=auto;html=1;exitX=1;exitY=0.5;exitDx=0;exitDy=0;startArrow=classic;startFill=1;dashed=1;strokeWidth=2;" edge="1" parent="1" source="vGRCYvYw_vGhQaDywJrN-30">
          <mxGeometry relative="1" as="geometry">
            <mxPoint x="-1334" y="-940" as="targetPoint" />
          </mxGeometry>
        </mxCell>
        <mxCell id="SkDtupgN0jb3LAkBl0hs-4" style="edgeStyle=orthogonalEdgeStyle;rounded=0;orthogonalLoop=1;jettySize=auto;html=1;exitX=1;exitY=0.5;exitDx=0;exitDy=0;entryX=0;entryY=0.5;entryDx=0;entryDy=0;strokeWidth=2;startArrow=classic;startFill=1;dashed=1;" edge="1" parent="1" source="vGRCYvYw_vGhQaDywJrN-36" target="vGRCYvYw_vGhQaDywJrN-40">
          <mxGeometry relative="1" as="geometry">
            <mxPoint x="-1206" y="-615" as="sourcePoint" />
            <mxPoint x="-1205" y="-690" as="targetPoint" />
          </mxGeometry>
        </mxCell>
        <mxCell id="SkDtupgN0jb3LAkBl0hs-5" style="edgeStyle=orthogonalEdgeStyle;rounded=0;orthogonalLoop=1;jettySize=auto;html=1;exitX=0;exitY=0.5;exitDx=0;exitDy=0;entryX=1;entryY=0.5;entryDx=0;entryDy=0;strokeWidth=2;startArrow=classic;startFill=1;dashed=1;" edge="1" parent="1" source="vGRCYvYw_vGhQaDywJrN-36" target="vGRCYvYw_vGhQaDywJrN-38">
          <mxGeometry relative="1" as="geometry">
            <mxPoint x="-1196" y="-605" as="sourcePoint" />
            <mxPoint x="-1195" y="-680" as="targetPoint" />
          </mxGeometry>
        </mxCell>
      </root>
    </mxGraphModel>
  </diagram>
</mxfile>
